HIERARCHY
ROOT Hips
{
    OFFSET 0.000000 0.000000 0.000000
    CHANNELS 6 Xposition Yposition Zposition Zrotation Xrotation Yrotation
    JOINT Spine
    {
        OFFSET -0.000000 14.517291 0.000000
        CHANNELS 3 Zrotation Xrotation Yrotation
        JOINT Spine1
        {
            OFFSET -0.000000 37.558300 0.000000
            CHANNELS 3 Zrotation Xrotation Yrotation
            JOINT Neck
            {
                OFFSET -0.000000 37.404057 3.400369
                CHANNELS 3 Zrotation Xrotation Yrotation
                JOINT Head
                {
                    OFFSET -0.000000 24.785618 -3.540803
                    CHANNELS 3 Zrotation Xrotation Yrotation
                    End Site
                    {
                        OFFSET -0.000000 35.408028 0.000000
                    }
                }
            }
            JOINT LeftShoulder
            {
                OFFSET 6.992933 33.973492 -0.192664
                CHANNELS 3 Zrotation Xrotation Yrotation
                JOINT LeftArm
                {
                    OFFSET 21.527611 0.000000 0.000000
                    CHANNELS 3 Zrotation Xrotation Yrotation
                    JOINT LeftForeArm
                    {
                        OFFSET 56.353916 0.000000 0.000000
                        CHANNELS 3 Zrotation Xrotation Yrotation
                        JOINT LeftHand
                        {
                            OFFSET 47.774071 0.000000 0.000000
                            CHANNELS 3 Zrotation Xrotation Yrotation
                            End Site
                            {
                                OFFSET 26.556021 0.000000 0.000000
                            }
                        }
                    }
                }
            }
            JOINT RightShoulder
            {
                OFFSET -7.065357 33.973492 -0.192664
                CHANNELS 3 Zrotation Xrotation Yrotation
                JOINT RightArm
                {
                    OFFSET -21.527611 0.000000 0.000000
                    CHANNELS 3 Zrotation Xrotation Yrotation
                    JOINT RightForeArm
                    {
                        OFFSET -56.353916 0.000000 0.000000
                        CHANNELS 3 Zrotation Xrotation Yrotation
                        JOINT RightHand
                        {
                            OFFSET -47.774071 0.000000 0.000000
                            CHANNELS 3 Zrotation Xrotation Yrotation
                            End Site
                            {
                                OFFSET -26.556021 0.000000 0.000000
                            }
                        }
                    }
                }
            }
        }
    }
    JOINT LeftUpLeg
    {
        OFFSET 17.704014 0.000000 0.000000
        CHANNELS 3 Zrotation Xrotation Yrotation
        JOINT LeftLeg
        {
            OFFSET -0.000000 -81.181816 0.000000
            CHANNELS 3 Zrotation Xrotation Yrotation
            JOINT LeftFoot
            {
                OFFSET -0.000000 -62.821102 0.000000
                CHANNELS 3 Zrotation Xrotation Yrotation
                JOINT LeftToeBase
                {
                    OFFSET -0.000000 -11.507608 26.556021
                    CHANNELS 3 Zrotation Xrotation Yrotation
                    End Site
                    {
                        OFFSET -0.000000 0.000000 7.081605
                    }
                }
            }
        }
    }
    JOINT RightUpLeg
    {
        OFFSET -17.704014 0.000000 0.000000
        CHANNELS 3 Zrotation Xrotation Yrotation
        JOINT RightLeg
        {
            OFFSET -0.000000 -81.181816 0.000000
            CHANNELS 3 Zrotation Xrotation Yrotation
            JOINT RightFoot
            {
                OFFSET -0.000000 -62.821102 0.000000
                CHANNELS 3 Zrotation Xrotation Yrotation
                JOINT RightToeBase
                {
                    OFFSET -0.000000 -11.507608 26.556021
                    CHANNELS 3 Zrotation Xrotation Yrotation
                    End Site
                    {
                        OFFSET -0.000000 0.000000 7.081605
                    }
                }
            }
        }
    }
}
MOTION
Frames:    8
Frame Time:    0.008333
-1.167154    153.499054    -33.989143    -1.113276    -0.668569    -22.449041    2.023847    3.290930    10.742960    -0.281001    0.308975    3.601961    5.378320    -0.184818    1.892750    0.675217    -1.224250    1.264297    -1.755739    6.213043    -6.538762    -45.273064    16.203369    -30.417728    2.317144    -31.185444    -124.740349    -7.460015    -26.669210    -11.206931    -2.951173    11.068663    5.070560    34.934566    11.060659    64.714676    -19.234488    -23.726166    63.728546    13.489177    -8.119529    34.221600    16.865978    -25.800474    2.171637    -16.372009    28.661213    -11.835855    -1.483506    -4.084946    39.094105    0.000000    0.000000    0.000000    -14.596960    9.520724    -30.260719    1.861195    19.952269    -10.720089    12.860032    -15.141511    -6.617809    0.000000    0.000000    0.000000    
-1.163071    153.495193    -33.987129    -1.100944    -0.656682    -22.439062    2.025814    3.279059    10.739861    -0.288111    0.319655    3.600932    5.398690    -0.186931    1.897024    0.652149    -1.208886    1.262022    -1.755793    6.218744    -6.532943    -45.254959    16.214214    -30.425594    2.326161    -31.208611    -124.722374    -7.486126    -26.677347    -11.201761    -2.943090    11.059920    5.075812    34.939602    11.053969    64.711105    -19.228607    -23.720448    63.714523    13.504178    -8.114588    34.230675    16.859709    -25.814371    2.200262    -16.363291    28.660135    -11.835193    -1.493408    -4.094492    39.064953    0.000000    0.000000    0.000000    -14.597538    9.510944    -30.289459    1.848499    19.948179    -10.689037    12.845976    -15.163677    -6.611188    0.000000    0.000000    0.000000    
-1.160569    153.493500    -33.980442    -1.096807    -0.649261    -22.420761    2.029755    3.262956    10.734029    -0.281180    0.343382    3.598962    5.389950    -0.181915    1.898152    0.656856    -1.209642    1.265396    -1.749092    6.216617    -6.549407    -45.269016    16.201036    -30.407141    2.330013    -31.204149    -124.712700    -7.493254    -26.665586    -11.212357    -2.945939    11.057213    5.068482    34.944225    11.047750    64.723785    -19.220711    -23.717325    63.699902    13.490494    -8.122970    34.237785    16.860243    -25.821709    2.194329    -16.380772    28.647097    -11.833590    -1.483016    -4.090416    39.058971    0.000000    0.000000    0.000000    -14.592786    9.512345    -30.291279    1.854990    19.943523    -10.658507    12.795491    -15.182389    -6.652819    0.000000    0.000000    0.000000    
-1.156474    153.494354    -33.973099    -1.087992    -0.646689    -22.404461    2.029709    3.255192    10.727424    -0.281261    0.360722    3.596770    5.388828    -0.187099    1.898493    0.664640    -1.190202    1.266822    -1.746988    6.214998    -6.554693    -45.261467    16.205917    -30.399742    2.325157    -31.205992    -124.709824    -7.458887    -26.680319    -11.191838    -2.945781    11.044831    5.073346    34.955322    11.044349    64.714035    -19.214272    -23.705599    63.694725    13.466036    -8.122932    34.239719    16.847729    -25.827648    2.206621    -16.379822    28.644539    -11.809530    -1.469186    -4.075666    39.016457    0.000000    0.000000    0.000000    -14.594680    9.512081    -30.298330    1.852973    19.945770    -10.618592    12.749463    -15.199430    -6.702804    0.000000    0.000000    0.000000    
-1.155298    153.494675    -33.971596    -1.078358    -0.634439    -22.387474    2.017079    3.239713    10.725533    -0.262878    0.370212    3.595906    5.384174    -0.187110    1.888601    0.669500    -1.170318    1.257823    -1.741067    6.226541    -6.555687    -45.257359    16.238977    -30.415192    2.355383    -31.258720    -124.681328    -7.457457    -26.686874    -11.186874    -2.944582    11.051699    5.055371    34.948212    11.043080    64.728783    -19.212811    -23.705994    63.681381    13.473644    -8.122265    34.262177    16.844355    -25.845648    2.205440    -16.391165    28.638342    -11.819052    -1.471551    -4.070891    39.033417    0.000000    0.000000    0.000000    -14.591343    9.501968    -30.284798    1.854514    19.943531    -10.619881    12.730433    -15.209676    -6.718562    0.000000    0.000000    0.000000    
-1.153795    153.495834    -33.965321    -1.072316    -0.618452    -22.364336    2.029901    3.219597    10.716563    -0.275987    0.373704    3.592986    5.351440    -0.285505    1.925552    0.802873    -1.000260    1.315731    -1.726552    6.235496    -6.577657    -45.257496    16.240881    -30.394583    2.368570    -31.276703    -124.657913    -7.486452    -26.680820    -11.219110    -2.936306    11.049667    5.071313    34.969944    11.038456    64.704254    -19.206635    -23.699379    63.681919    13.461628    -8.125587    34.239342    16.839218    -25.862446    2.213476    -16.378418    28.636267    -11.847462    -1.471833    -4.072752    39.013775    0.000000    0.000000    0.000000    -14.582402    9.489367    -30.289982    1.851038    19.951717    -10.608472    12.706560    -15.226827    -6.745129    0.000000    0.000000    0.000000    
-1.152783    153.498047    -33.962379    -1.064102    -0.601862    -22.343199    2.025251    3.201869    10.709897    -0.262916    0.377263    3.590576    5.328864    -0.296043    1.913068    0.835316    -0.958149    1.310364    -1.724922    6.225278    -6.593746    -45.264805    16.249701    -30.369877    2.363602    -31.281214    -124.658112    -7.499122    -26.692520    -11.226281    -2.937890    11.052417    5.065858    34.966087    11.049280    64.702652    -19.224131    -23.713820    63.675236    13.492034    -8.121588    34.243900    16.826462    -25.823298    2.220963    -16.217262    28.530922    -12.203740    -1.625717    -4.133867    39.071953    0.000000    0.000000    0.000000    -14.575632    9.470746    -30.291756    1.846191    19.959833    -10.616083    12.688781    -15.233130    -6.758857    0.000000    0.000000    0.000000    
-1.154893    153.498962    -33.961193    -1.054431    -0.580063    -22.323303    2.019474    3.187928    10.697949    -0.257691    0.365182    3.586411    5.340820    -0.307583    1.912453    0.829283    -0.909282    1.306044    -1.715520    6.233810    -6.594147    -45.266403    16.247124    -30.361887    2.364427    -31.269943    -124.652481    -7.495458    -26.680040    -11.228799    -2.929501    11.060097    5.065730    34.967407    11.058433    64.698158    -19.225204    -23.715979    63.683731    13.494317    -8.120896    34.240898    16.829245    -25.848171    2.219405    -16.229326    28.520487    -12.202421    -1.633640    -4.123731    39.066036    0.000000    0.000000    0.000000    -14.567765    9.443065    -30.298880    1.841666    19.977627    -10.596371    12.640492    -15.251416    -6.794985    0.000000    0.000000    0.000000    
